<svg xmlns="http://www.w3.org/2000/svg" viewBox="0 0 24 24" fill="currentColor">
  <path d="M12 .5C5.37.5 0 5.88 0 12.49c0 5.3 3.438 9.799 8.205 11.387.6.11.82-.26.82-.58 0-.29-.01-1.07-.016-2.1-3.338.724-4.042-1.61-4.042-1.61-.546-1.38-1.333-1.748-1.333-1.748-1.09-.745.084-.73.084-.73 1.205.086 1.838 1.238 1.838 1.238 1.07 1.837 2.807 1.306 3.49.998.108-.775.42-1.306.764-1.607-2.665-.305-5.466-1.36-5.466-6.047 0-1.337.47-2.43 1.238-3.287-.126-.305-.536-1.533.114-3.196 0 0 1.01-.323 3.3 1.239a11.419 11.419 0 0 1 3-.405c1.02.004 2.042.137 3 .405 2.29-1.562 3.3-1.239 3.3-1.239.65 1.663.24 2.891.12 3.196.774.857 1.238 1.95 1.238 3.287 0 4.696-2.81 5.736-5.486 6.032.432.372.81 1.1.81 2.22 0 1.606-.015 2.898-.015 3.291 0 .323.22.697.82.578A12.518 12.518 0 0 0 24 12.49C24 5.88 18.63.5 12 .5z"/>
</svg>
