<svg xmlns="http://www.w3.org/2000/svg" viewBox="0 0 24 24" fill="currentColor">
  <path d="M22.225 0H1.771C.79 0 0 .774 0 1.728v20.543C0 23.226.792 24 1.771 24h20.451C23.208 24 24 23.226 24 22.272V1.728C24 .774 23.208 0 22.225 0zM7.083 20.452H3.547V9.035h3.536v11.417zM5.313 7.548c-1.132 0-2.048-.927-2.048-2.066C3.265 4.356 4.18 3.43 5.313 3.43c1.137 0 2.049.927 2.049 2.052 0 1.14-.912 2.066-2.049 2.066zM20.452 20.452h-3.535v-5.863c0-1.396-.028-3.187-1.941-3.187-1.941 0-2.239 1.515-2.239 3.08v5.97h-3.537V9.035h3.393v1.561h.048c.473-.898 1.63-1.847 3.357-1.847 3.589 0 4.252 2.364 4.252 5.439v6.264z"/>
</svg>
